<svg aria-hidden="true" style="position: absolute; width: 0; height: 0; overflow: hidden;" version="1.1" xmlns="http://www.w3.org/2000/svg" xmlns:xlink="http://www.w3.org/1999/xlink">
<defs>
<symbol id="icon-element2-app" viewBox="0 0 32 32">
<path fill="#fdd08d" style="fill: var(--color1, #fdd08d)" d="M16.238 27.685l1.702-7.828c0.108-0.29 0.409-0.507 0.735-0.496l7.845 1.712c0.29 0.108 0.592-0.11 0.735-0.496l0.964-4.367c0.108-0.29-0.111-0.591-0.498-0.735l-7.845-1.711c-0.29-0.108-0.509-0.409-0.498-0.735l1.702-7.828c0.108-0.29-0.111-0.591-0.498-0.735l-4.376-0.97c-0.29-0.108-0.592 0.11-0.735 0.496l-1.702 7.828c-0.108 0.29-0.409 0.507-0.735 0.496l-7.845-1.712c-0.29-0.108-0.592 0.11-0.735 0.496l-0.965 4.367c-0.108 0.289 0.111 0.591 0.498 0.735l7.845 1.712c0.29 0.108 0.509 0.409 0.498 0.735l-1.702 7.828c-0.108 0.29 0.111 0.591 0.498 0.735l4.376 0.969c0.326 0.012 0.628-0.206 0.735-0.495z"></path>
</symbol>
<symbol id="icon-element2-header" viewBox="0 0 32 32">
<path d="M1.454 22.647c-3.691-7.996-0.1-17.492 7.88-21.19s17.455-0.1 21.146 7.896c3.69 7.996 0.1 17.492-7.88 21.19s-17.455 0.1-21.146-7.896zM5.843 20.648c2.593 5.597 9.176 8.096 14.862 5.497 5.586-2.599 8.079-9.196 5.486-14.893s-9.176-8.096-14.862-5.497c-5.586 2.599-8.079 9.296-5.486 14.893z"></path>
</symbol>
<symbol id="icon-element2-testimonials" viewBox="0 0 32 32">
<path d="M1.457 22.647c-3.698-7.996-0.1-17.492 7.896-21.19s17.492-0.1 21.19 7.896c3.698 7.996 0.1 17.492-7.896 21.19s-17.492 0.1-21.19-7.896zM5.855 20.648c2.599 5.597 9.196 8.096 14.893 5.497 5.597-2.599 8.096-9.195 5.497-14.893s-9.196-8.096-14.893-5.497c-5.597 2.599-8.096 9.296-5.497 14.893z"></path>
</symbol>
<symbol id="icon-element3-header" viewBox="0 0 34 32">
<path fill="#fdd08d" style="fill: var(--color1, #fdd08d)" d="M21.876 30.259l-1.476-10.31c0-0.402 0.268-0.803 0.671-0.937l10.334-1.473c0.403 0 0.671-0.402 0.671-0.937l-0.805-5.757c0-0.402-0.403-0.669-0.94-0.669l-10.334 1.473c-0.403 0-0.805-0.268-0.939-0.669l-1.476-10.31c0-0.402-0.403-0.669-0.94-0.669l-5.771 0.803c-0.403 0-0.671 0.402-0.671 0.937l1.476 10.31c0 0.402-0.268 0.803-0.671 0.937l-10.334 1.473c-0.403 0-0.671 0.402-0.671 0.937l0.805 5.757c0 0.402 0.403 0.669 0.94 0.669l10.334-1.473c0.403 0 0.805 0.268 0.94 0.669l1.476 10.31c0 0.402 0.403 0.669 0.94 0.669l5.771-0.803c0.403-0.134 0.671-0.536 0.671-0.937z"></path>
</symbol>
<symbol id="icon-element3-testimonials" viewBox="0 0 33 32">
<path fill="#fdd08d" style="fill: var(--color1, #fdd08d)" d="M19.393 29.194l0.004-9.153c0.050-0.349 0.334-0.665 0.701-0.732l9.174 0.010c0.35 0.050 0.634-0.266 0.701-0.732l0.019-5.109c0.050-0.349-0.267-0.633-0.734-0.7l-9.174-0.010c-0.35-0.050-0.667-0.334-0.734-0.7l0.004-9.154c0.050-0.349-0.267-0.633-0.734-0.7l-5.121-0.022c-0.35-0.050-0.634 0.266-0.701 0.732l-0.004 9.154c-0.050 0.349-0.334 0.665-0.701 0.731l-9.175-0.010c-0.35-0.050-0.634 0.266-0.701 0.732l-0.019 5.109c-0.050 0.349 0.267 0.633 0.734 0.7l9.175 0.010c0.35 0.050 0.667 0.334 0.734 0.7l-0.004 9.154c-0.050 0.349 0.267 0.633 0.734 0.7l5.121 0.022c0.367-0.066 0.651-0.382 0.701-0.731z"></path>
</symbol>
<symbol id="icon-element-app" viewBox="0 0 32 32">
<path fill="#fdd08d" style="fill: var(--color1, #fdd08d)" d="M18.397 28.291l0.282-8.766c0.059-0.333 0.34-0.627 0.693-0.679l8.786 0.288c0.334 0.059 0.615-0.235 0.694-0.679l0.173-4.892c0.059-0.333-0.236-0.614-0.681-0.692l-8.786-0.288c-0.334-0.059-0.629-0.34-0.681-0.692l0.282-8.766c0.059-0.333-0.236-0.614-0.681-0.692l-4.904-0.177c-0.334-0.059-0.615 0.235-0.693 0.679l-0.282 8.766c-0.059 0.333-0.34 0.627-0.693 0.679l-8.786-0.288c-0.334-0.059-0.615 0.235-0.693 0.679l-0.173 4.892c-0.059 0.333 0.236 0.614 0.681 0.692l8.786 0.288c0.334 0.059 0.629 0.34 0.681 0.692l-0.282 8.766c-0.059 0.333 0.236 0.614 0.681 0.693l4.903 0.177c0.354-0.052 0.635-0.346 0.694-0.679z"></path>
</symbol>
<symbol id="icon-element-header" viewBox="0 0 32 32">
<path d="M1.454 22.647c-3.691-7.996-0.1-17.491 7.88-21.19s17.455-0.1 21.146 7.896c3.691 7.996 0.1 17.492-7.88 21.19s-17.455 0.1-21.146-7.896zM5.843 20.648c2.593 5.597 9.176 8.096 14.862 5.497 5.586-2.599 8.079-9.196 5.486-14.893s-9.176-8.096-14.862-5.497c-5.586 2.599-8.079 9.296-5.486 14.893z"></path>
</symbol>
<symbol id="icon-element-new-way" viewBox="0 0 32 32">
<path fill="#fdd08d" style="fill: var(--color1, #fdd08d)" d="M19.058 28.567l-0.105-9.056c0.046-0.346 0.322-0.662 0.685-0.732l9.077-0.099c0.347 0.046 0.624-0.27 0.685-0.732l-0.042-5.055c0.046-0.346-0.271-0.623-0.734-0.684l-9.077 0.099c-0.347-0.046-0.664-0.322-0.734-0.684l-0.105-9.056c0.046-0.346-0.271-0.623-0.734-0.684l-5.067 0.039c-0.347-0.046-0.624 0.27-0.685 0.732l0.105 9.056c-0.046 0.346-0.322 0.662-0.685 0.732l-9.077 0.099c-0.347-0.046-0.624 0.27-0.685 0.732l0.042 5.055c-0.046 0.346 0.271 0.623 0.734 0.684l9.077-0.099c0.347 0.046 0.664 0.322 0.734 0.684l0.105 9.056c-0.046 0.346 0.271 0.623 0.734 0.684l5.067-0.039c0.362-0.070 0.639-0.386 0.685-0.732z"></path>
</symbol>
<symbol id="icon-element-testimonials" viewBox="0 0 32 32">
<path d="M1.454 22.647c-3.691-7.996-0.1-17.492 7.88-21.19s17.455-0.1 21.146 7.896c3.69 7.996 0.1 17.492-7.88 21.19s-17.455 0.1-21.146-7.896zM5.843 20.648c2.593 5.597 9.176 8.096 14.862 5.497 5.586-2.599 8.079-9.196 5.486-14.893s-9.176-8.096-14.862-5.497c-5.586 2.599-8.079 9.296-5.486 14.893z"></path>
</symbol>
<symbol id="icon-facebook" viewBox="0 0 15 32">
<path d="M9.668 10.488v-2.771c0-0.417 0.029-0.745 0.058-0.953 0.029-0.238 0.116-0.447 0.261-0.655s0.348-0.358 0.639-0.447c0.29-0.089 0.697-0.119 1.19-0.119h2.7v-5.542h-4.326c-2.497 0-4.268 0.596-5.342 1.817s-1.626 2.98-1.626 5.363v3.307h-3.223v5.512h3.223v16h6.445v-16h4.297l0.581-5.512h-4.878z"></path>
</symbol>
<symbol id="icon-instagram" viewBox="0 0 32 32">
<path d="M23.172 0h-14.343c-4.876 0-8.828 3.953-8.828 8.828v14.343c0 4.876 3.953 8.828 8.828 8.828h14.343c4.876 0 8.828-3.953 8.828-8.828v-14.343c0-4.876-3.953-8.828-8.828-8.828zM29.16 23.172c0 3.314-2.698 5.988-5.988 5.988h-14.343c-3.314 0-5.988-2.698-5.988-5.988v-14.343c0-3.29 2.698-5.988 5.988-5.988h14.343c3.314 0 5.988 2.698 5.988 5.988v14.343z"></path>
<path d="M16 7.763c-4.544 0-8.26 3.692-8.26 8.237s3.692 8.26 8.26 8.26c4.544 0 8.26-3.692 8.26-8.26 0-4.544-3.716-8.237-8.26-8.237zM16 21.42c-2.982 0-5.42-2.414-5.42-5.396 0.024-3.006 2.438-5.42 5.42-5.42s5.42 2.414 5.42 5.396c0 2.982-2.438 5.42-5.42 5.42z"></path>
<path d="M24.592 5.349c-0.544 0-1.089 0.213-1.468 0.615-0.379 0.379-0.615 0.923-0.615 1.467s0.213 1.089 0.615 1.467c0.379 0.379 0.923 0.615 1.468 0.615s1.089-0.213 1.468-0.615c0.379-0.379 0.615-0.923 0.615-1.467s-0.213-1.089-0.615-1.467c-0.379-0.402-0.899-0.615-1.468-0.615z"></path>
</symbol>
<symbol id="icon-linkedin" viewBox="0 0 33 32">
<path d="M7.587 10.399h-7.186v21.601h7.186v-21.601z"></path>
<path d="M31.182 12.372c-1.504-1.638-3.509-2.474-5.982-2.474-0.902 0-1.738 0.1-2.507 0.334-0.735 0.234-1.37 0.535-1.905 0.936-0.501 0.401-0.936 0.769-1.236 1.137-0.301 0.334-0.568 0.702-0.836 1.137v-3.076h-7.152l0.033 1.037c0 0.702 0.033 2.842 0.033 6.453s0 8.293-0.033 14.111h7.152v-12.038c0-0.736 0.067-1.337 0.234-1.772 0.301-0.736 0.769-1.371 1.37-1.873s1.37-0.736 2.306-0.736c1.237 0 2.172 0.435 2.741 1.304 0.602 0.869 0.869 2.073 0.869 3.578v11.536h7.152v-12.372c0.033-3.177-0.702-5.584-2.239-7.223z"></path>
<path d="M4.044 0c-1.203 0-2.172 0.368-2.908 1.070-0.769 0.702-1.136 1.572-1.136 2.642s0.368 1.939 1.103 2.675c0.735 0.702 1.671 1.070 2.874 1.070h0.033c1.237 0 2.206-0.368 2.941-1.070s1.103-1.605 1.103-2.675c0-1.070-0.401-1.973-1.103-2.675-0.735-0.669-1.704-1.037-2.908-1.037z"></path>
</symbol>
<symbol id="icon-logo" viewBox="0 0 32 32">
<path fill="#1abe84" style="fill: var(--color2, #1abe84)" d="M32 16c0 8.837-7.163 16-16 16s-16-7.163-16-16c0-8.837 7.163-16 16-16s16 7.163 16 16z"></path>
<path fill="#fb8f1d" stroke="#fff" stroke-width="2.3415" stroke-miterlimit="4" stroke-linecap="butt" stroke-linejoin="miter" style="fill: var(--color3, #fb8f1d); stroke: var(--color4, #fff)" d="M23.024 16c0 3.879-3.145 7.024-7.024 7.024s-7.024-3.145-7.024-7.024c0-3.879 3.145-7.024 7.024-7.024s7.024 3.145 7.024 7.024z"></path>
</symbol>
<symbol id="icon-logo-footer" viewBox="0 0 32 32">
<path fill="#1abe84" style="fill: var(--color2, #1abe84)" d="M32 16c0 8.837-7.163 16-16 16s-16-7.163-16-16c0-8.837 7.163-16 16-16s16 7.163 16 16z"></path>
<path fill="#fb8f1d" stroke="#fff" stroke-width="2.1818" stroke-miterlimit="4" stroke-linecap="butt" stroke-linejoin="miter" style="fill: var(--color3, #fb8f1d); stroke: var(--color4, #fff)" d="M22.945 16c0 3.835-3.109 6.945-6.945 6.945s-6.945-3.109-6.945-6.945c0-3.835 3.109-6.945 6.945-6.945s6.945 3.109 6.945 6.945z"></path>
</symbol>
<symbol id="icon-next" viewBox="0 0 32 32">
<path stroke-width="1.6" stroke-miterlimit="4" stroke-linecap="round" stroke-linejoin="round" d="M14.4 12l3.2 3.6-3.2 3.6"></path>
<path stroke-width="1.6" stroke-miterlimit="4" stroke-linecap="butt" stroke-linejoin="miter" d="M31.2 16c0 8.395-6.805 15.2-15.2 15.2s-15.2-6.805-15.2-15.2c0-8.395 6.805-15.2 15.2-15.2s15.2 6.805 15.2 15.2z"></path>
</symbol>
<symbol id="icon-previous" viewBox="0 0 32 32">
<path fill="none" stroke="#d7d7d7" stroke-width="1.6" stroke-miterlimit="4" stroke-linecap="round" stroke-linejoin="round" style="stroke: var(--color5, #d7d7d7)" d="M17.6 20l-3.2-3.6 3.2-3.6"></path>
<path fill="none" stroke="#d7d7d7" stroke-width="1.6" stroke-miterlimit="4" stroke-linecap="butt" stroke-linejoin="miter" style="stroke: var(--color5, #d7d7d7)" d="M0.8 16c0-8.395 6.805-15.2 15.2-15.2s15.2 6.805 15.2 15.2c0 8.395-6.805 15.2-15.2 15.2s-15.2-6.805-15.2-15.2z"></path>
</symbol>
<symbol id="icon-stars" viewBox="0 0 253 32">
<path fill="#ffbb0c" style="fill: var(--color6, #ffbb0c)" d="M16.781 26.732l8 4.878c1.561 0.976 3.317-0.39 2.927-2.146l-2.146-9.171 7.219-6.244c1.366-1.171 0.585-3.317-1.171-3.512l-9.366-0.78-3.707-8.585c-0.781-1.561-2.927-1.561-3.707 0l-3.707 8.78-9.366 0.78c-1.756 0-2.341 2.146-1.171 3.317l7.22 6.244-2.146 9.171c-0.39 1.756 1.366 2.927 2.927 2.146l8.195-4.878z"></path>
<path fill="#ffbb0c" style="fill: var(--color6, #ffbb0c)" d="M71.447 26.732l8 4.878c1.561 0.976 3.317-0.39 2.927-2.146l-2.146-9.171 7.219-6.244c1.366-1.171 0.585-3.317-1.171-3.512l-9.366-0.78-3.707-8.585c-0.781-1.561-2.927-1.561-3.707 0l-3.707 8.78-9.366 0.78c-1.756 0-2.341 2.146-1.171 3.317l7.219 6.244-2.146 9.171c-0.39 1.756 1.366 2.927 2.927 2.146l8.195-4.878z"></path>
<path fill="#ffbb0c" style="fill: var(--color6, #ffbb0c)" d="M126.114 26.732l7.999 4.878c1.561 0.976 3.317-0.39 2.927-2.146l-2.145-9.171 7.219-6.244c1.367-1.171 0.585-3.317-1.171-3.512l-9.365-0.78-3.707-8.585c-0.78-1.561-2.927-1.561-3.707 0l-3.707 8.78-9.366 0.78c-1.756 0-2.341 2.146-1.171 3.317l7.22 6.244-2.146 9.171c-0.39 1.756 1.366 2.927 2.927 2.146l8.195-4.878z"></path>
<path fill="#ffbb0c" style="fill: var(--color6, #ffbb0c)" d="M180.78 26.732l8 4.878c1.561 0.976 3.317-0.39 2.927-2.146l-2.145-9.171 7.219-6.244c1.367-1.171 0.585-3.317-1.171-3.512l-9.365-0.78-3.708-8.585c-0.78-1.561-2.927-1.561-3.707 0l-3.708 8.78-9.365 0.78c-1.756 0-2.341 2.146-1.171 3.317l7.22 6.244-2.147 9.171c-0.391 1.756 1.365 2.927 2.927 2.146l8.195-4.878z"></path>
<path fill="#ffbb0c" style="fill: var(--color6, #ffbb0c)" d="M235.447 26.732l8 4.878c1.561 0.976 3.317-0.39 2.927-2.146l-2.145-9.171 7.219-6.244c1.367-1.171 0.585-3.317-1.171-3.512l-9.365-0.78-3.708-8.585c-0.78-1.561-2.927-1.561-3.707 0l-3.708 8.78-9.365 0.78c-1.756 0-2.341 2.146-1.171 3.317l7.22 6.244-2.147 9.171c-0.391 1.756 1.365 2.927 2.927 2.146l8.195-4.878z"></path>
</symbol>
<symbol id="icon-twitter" viewBox="0 0 40 32">
<path d="M39.998 3.799c-1.558 0.652-3.155 1.074-4.713 1.266 1.792-1.036 2.96-2.532 3.622-4.451-1.636 0.921-3.388 1.573-5.219 1.918-1.636-1.688-3.622-2.532-5.998-2.532-2.259 0-4.206 0.806-5.803 2.379s-2.415 3.492-2.415 5.717c0 0.614 0.078 1.228 0.195 1.842-3.35-0.153-6.504-0.998-9.425-2.494s-5.414-3.492-7.478-5.947c-0.74 1.266-1.129 2.609-1.129 4.067 0 1.381 0.312 2.686 0.974 3.837 0.662 1.189 1.558 2.149 2.648 2.878-1.324-0.038-2.571-0.384-3.7-1.036v0.115c0 1.957 0.623 3.645 1.87 5.142 1.246 1.458 2.804 2.417 4.713 2.801-0.701 0.192-1.441 0.269-2.142 0.269-0.467 0-0.974-0.038-1.558-0.115 0.506 1.612 1.48 2.954 2.882 3.99s2.999 1.573 4.791 1.612c-2.96 2.302-6.388 3.453-10.166 3.453-0.74 0-1.402-0.038-1.986-0.115 3.817 2.417 8.023 3.607 12.58 3.607 2.921 0 5.648-0.46 8.218-1.343 2.571-0.921 4.752-2.11 6.543-3.645s3.388-3.3 4.674-5.257c1.324-1.995 2.298-4.067 2.921-6.216s0.974-4.336 0.974-6.484c0-0.46 0-0.806-0.039-1.036 1.675-1.189 3.038-2.571 4.167-4.221z"></path>
</symbol>
<symbol id="icon-Vector" viewBox="0 0 17 32">
<path fill="none" stroke="#fb8f1d" stroke-width="5.8182" stroke-miterlimit="4" stroke-linecap="round" stroke-linejoin="round" style="stroke: var(--color3, #fb8f1d)" d="M2.909 2.909l11.636 13.091-11.636 13.091"></path>
</symbol>
<symbol id="icon-youtube" viewBox="0 0 46 32">
<path d="M44.777 12.24c0-0.883-0.077-2.034-0.23-3.415-0.115-1.381-0.307-2.609-0.537-3.683-0.269-1.228-0.844-2.225-1.727-3.070s-1.919-1.305-3.108-1.458c-3.683-0.422-9.285-0.614-16.767-0.614s-13.084 0.192-16.767 0.614c-1.189 0.153-2.225 0.614-3.108 1.458s-1.458 1.842-1.727 3.070c-0.269 1.074-0.422 2.302-0.576 3.683-0.115 1.381-0.192 2.532-0.23 3.415 0 0.921 0 2.149 0 3.76s0 2.839 0.038 3.76c0 0.883 0.077 2.034 0.23 3.415 0.077 1.381 0.269 2.609 0.499 3.684 0.269 1.228 0.844 2.225 1.727 3.069s1.918 1.305 3.108 1.458c3.683 0.422 9.285 0.614 16.767 0.614s13.084-0.192 16.767-0.614c1.189-0.115 2.225-0.614 3.108-1.458s1.458-1.842 1.727-3.069c0.269-1.074 0.422-2.302 0.576-3.684 0.115-1.381 0.192-2.532 0.23-3.415 0-0.882 0.038-2.149 0.038-3.76s0-2.839-0.038-3.76zM31.271 17.343l-12.815 8.019c-0.23 0.153-0.499 0.269-0.844 0.269-0.269 0-0.499-0.077-0.767-0.192-0.537-0.307-0.844-0.767-0.844-1.42v-16c0-0.652 0.269-1.113 0.844-1.42s1.113-0.269 1.612 0.038l12.815 8.019c0.499 0.269 0.767 0.729 0.767 1.343-0.038 0.614-0.269 1.074-0.767 1.343z"></path>
</symbol>
<symbol id="icon-menu" viewBox="0 0 32 32"><path d="M6.4 11.733V9.6h19.2v2.133H6.4zm0 5.334h19.2v-2.133H6.4v2.133zm0 5.333h19.2v-2.133H6.4V22.4z"/></symbol>
<symbol id="icon-close" viewBox="0 0 32 32"><path d="M26.667 7.303l-1.97-1.97-7.808 7.808-7.808-7.808-1.97 1.97 7.808 7.808-7.808 7.808 1.97 1.97 7.808-7.808 7.808 7.808 1.97-1.97-7.808-7.808 7.808-7.808z"/></symbol>
</defs>
</svg>
